<?xml version="1.0" encoding="UTF-8" standalone="no"?>
<svg
   xmlns:dc="http://purl.org/dc/elements/1.1/"
   xmlns:cc="http://creativecommons.org/ns#"
   xmlns:rdf="http://www.w3.org/1999/02/22-rdf-syntax-ns#"
   xmlns:svg="http://www.w3.org/2000/svg"
   xmlns="http://www.w3.org/2000/svg"
   xmlns:sodipodi="http://sodipodi.sourceforge.net/DTD/sodipodi-0.dtd"
   xmlns:inkscape="http://www.inkscape.org/namespaces/inkscape"
   id="Layer_1"
   xml:space="preserve"
   viewBox="0 0 200 100"
   version="1.1"
   sodipodi:docname="wPro58_logo.svg"
   width="200"
   height="100"
   inkscape:version="0.92.1 r15371"><defs
     id="defs17" /><sodipodi:namedview
     pagecolor="#ffffff"
     bordercolor="#666666"
     borderopacity="1"
     objecttolerance="10"
     gridtolerance="10"
     guidetolerance="10"
     inkscape:pageopacity="0"
     inkscape:pageshadow="2"
     inkscape:window-width="1920"
     inkscape:window-height="1017"
     id="namedview15"
     showgrid="false"
     inkscape:zoom="2.4180328"
     inkscape:cx="45.75"
     inkscape:cy="48.799999"
     inkscape:window-x="-8"
     inkscape:window-y="-8"
     inkscape:window-maximized="1"
     inkscape:current-layer="Layer_1" /><g
     id="g10"
     transform="translate(0,2.4000015)"><path
       d="M 86.6,10.3 V 10.2 C 85.1,8.2 83.3,6.5 81.2,4.9 V 5 C 79.5,6.3 77.8,7.7 76.2,9.1 75.5,8.7 74.9,8.4 74.3,8.1 73.5,7.7 72.7,7.3 71.8,7.1 71.5,7 71.2,6.9 70.9,6.9 70.7,4.7 70.5,2.5 70.2,0.3 69.2,0.1 68.2,0.1 67.1,0 H 66.3 65.5 C 64.5,0.1 63.6,0.1 62.7,0.3 62.4,2.4 62.2,4.6 62.1,6.8 61.7,6.8 61.4,6.9 61,7 60.9,7 60.8,7 60.7,7.1 59.9,7.3 59.1,7.7 58.3,8.1 57.6,8.4 57,8.7 56.4,9.1 54.7,7.7 53.1,6.4 51.4,5 L 51.3,4.9 C 50.9,5.2 50.5,5.5 50.2,5.8 49.5,6.3 48.9,6.9 48.4,7.5 47.5,8.3 46.8,9.3 46,10.3 h 0.1 c 1.3,1.7 2.7,3.3 4.1,5 -0.4,0.6 -0.8,1.3 -1.1,1.9 -0.4,0.8 -0.7,1.7 -0.9,2.5 -0.2,0.4 -0.3,0.8 -0.3,1.1 -2.2,0.2 -4.4,0.4 -6.5,0.7 -0.2,1 -0.3,2 -0.3,3.1 0,1.5 0.1,3 0.4,4.4 2.1,0.2 4.2,0.4 6.4,0.6 0,0.4 0.1,0.8 0.3,1.1 0.2,0.9 0.5,1.7 0.9,2.6 0.4,0.7 0.7,1.4 1.2,2 -1.4,1.7 -2.8,3.3 -4.1,5 1.5,2.1 3.3,3.9 5.4,5.4 v -0.1 c 1.6,-1.3 3.3,-2.7 4.9,-4.1 h 0.1 c 0.5,0.3 1.1,0.6 1.6,0.9 0.9,0.4 1.9,0.8 2.8,1 0.4,0.1 0.7,0.2 1,0.3 0.2,2.1 0.4,4.3 0.7,6.5 0.9,0.1 1.8,0.2 2.8,0.2 H 67 c 1.1,0 2.2,-0.1 3.3,-0.3 0.2,-2.1 0.4,-4.3 0.6,-6.5 0.3,-0.1 0.6,-0.2 0.9,-0.3 0.9,-0.2 1.7,-0.5 2.5,-0.9 0.7,-0.3 1.4,-0.7 2.1,-1.2 0,0.1 0,0.1 0.1,0.1 1.6,1.4 3.3,2.8 5,4.1 0.3,-0.2 0.6,-0.4 1,-0.7 0.6,-0.5 1.2,-1.1 1.7,-1.7 0.9,-0.9 1.8,-1.9 2.6,-3 -1.4,-1.7 -2.8,-3.4 -4.2,-5 v -0.1 c 0.3,-0.5 0.6,-1.1 0.9,-1.7 0.3,-0.8 0.7,-1.6 0.9,-2.4 0,-0.1 0,-0.2 0.1,-0.2 0,-0.4 0.1,-0.7 0.2,-0.9 2.2,-0.2 4.4,-0.4 6.5,-0.6 0.2,-1 0.2,-2 0.3,-3 v -0.9 -0.8 c -0.1,-1 -0.1,-2 -0.3,-3 -2.1,-0.2 -4.3,-0.4 -6.5,-0.6 -0.1,-0.3 -0.2,-0.6 -0.2,-0.9 -0.3,-0.9 -0.6,-1.8 -1,-2.7 -0.3,-0.6 -0.7,-1.3 -1,-1.9 1.3,-1.6 2.7,-3.3 4.1,-5 z m -26.7,8.3 c 1.8,-1.9 4,-2.8 6.5,-2.7 2.6,-0.1 4.7,0.8 6.6,2.7 1.8,1.8 2.7,4 2.7,6.5 0,2.6 -0.9,4.7 -2.7,6.6 -1.9,1.8 -4,2.7 -6.6,2.7 -2.5,0 -4.7,-0.9 -6.5,-2.7 -1.8,-1.9 -2.7,-4 -2.7,-6.6 0,-2.5 0.9,-4.7 2.7,-6.5 z"
       id="path2"
       inkscape:connector-curvature="0" /><path
       d="m 66.5,17.2 c -2.2,0 -4,0.8 -5.6,2.3 -1.5,1.6 -2.3,3.4 -2.3,5.6 0,2.2 0.8,4 2.3,5.6 1.6,1.6 3.4,2.4 5.6,2.4 2.2,0 4,-0.8 5.6,-2.4 1.6,-1.6 2.3,-3.4 2.3,-5.6 0,-2.2 -0.7,-4 -2.3,-5.6 -1.6,-1.5 -3.4,-2.3 -5.6,-2.3 z m -4.2,3.7 c 1.2,-1.1 2.6,-1.7 4.2,-1.7 1.6,0 3,0.6 4.2,1.7 1.2,1.2 1.7,2.5 1.7,4.2 0,1.7 -0.5,3.1 -1.7,4.2 -1.2,1.2 -2.6,1.8 -4.2,1.8 -1.6,0 -3,-0.6 -4.2,-1.8 -1.1,-1.1 -1.7,-2.5 -1.7,-4.2 0,-1.6 0.6,-3 1.7,-4.2 z"
       id="path4"
       inkscape:connector-curvature="0" /><path
       d="m 40.8,33.6 c -0.4,-0.2 -0.7,-0.3 -1,-0.3 -1.2,-0.3 -2.4,-0.5 -3.6,-0.7 -1.1,2.7 -2,5.3 -2.9,7.9 h -1.4 -0.4 c -1.2,0.1 -2.3,0.2 -3.4,0.4 -0.9,0.1 -1.8,0.4 -2.7,0.7 -1.6,-2.3 -3.3,-4.6 -4.9,-6.8 l -0.1,-0.1 c -0.6,0.2 -1.2,0.4 -1.7,0.7 -1,0.4 -1.9,0.9 -2.8,1.5 -1.4,0.7 -2.7,1.6 -3.9,2.7 v 0.1 c 1.2,2.5 2.3,5 3.5,7.5 -0.7,0.7 -1.3,1.3 -1.9,2.1 -0.8,0.8 -1.5,1.8 -2.1,2.8 -0.3,0.4 -0.5,0.8 -0.7,1.3 C 8,52.9 5.2,52.4 2.4,52 c -0.5,1.2 -1,2.4 -1.4,3.7 -0.4,2 -0.8,3.9 -1,5.8 l 7.8,3 v 1.4 c 0,1.1 0.1,2.3 0.4,3.5 0.1,1 0.4,2 0.7,3 -2.3,1.6 -4.5,3.2 -6.8,4.9 1.2,3 2.9,5.8 4.9,8.4 h 0.1 c 2.5,-1.2 5,-2.3 7.6,-3.5 0.6,0.6 1.2,1.1 1.8,1.7 0.9,0.8 2,1.5 3.2,2.2 0.3,0.2 0.7,0.4 1.1,0.7 -0.5,2.7 -0.9,5.5 -1.3,8.3 1.1,0.5 2.2,0.9 3.4,1.2 0.3,0.1 0.9,0.3 1.9,0.5 1.4,0.4 2.8,0.6 4.1,0.8 1.1,-2.7 2.1,-5.3 3,-8 h 1.2 0.1 c 1.2,0 2.3,-0.1 3.4,-0.3 1,-0.2 2,-0.5 3,-0.8 0,0 0,0.1 0.1,0.1 1.6,2.3 3.3,4.6 4.9,6.9 0.5,-0.3 1,-0.5 1.4,-0.7 1,-0.4 1.9,-0.9 2.8,-1.4 1.5,-0.9 2.9,-1.9 4.2,-3 -1.1,-2.6 -2.3,-5.1 -3.5,-7.7 0.6,-0.6 1.1,-1.2 1.7,-1.8 0.7,-0.9 1.4,-1.9 2,-2.8 0,-0.1 0.1,-0.2 0.1,-0.3 0.2,-0.3 0.4,-0.7 0.6,-1 2.8,0.5 5.6,0.9 8.4,1.4 0.5,-1.2 0.9,-2.4 1.3,-3.7 0.1,-0.3 0.2,-0.6 0.3,-1 0.1,-0.3 0.1,-0.6 0.3,-1 0.2,-1.3 0.5,-2.6 0.6,-3.8 -2.6,-1.1 -5.3,-2 -7.9,-3 v -1.2 c 0,-1.2 -0.1,-2.5 -0.4,-3.7 -0.1,-0.9 -0.4,-1.8 -0.6,-2.7 2.3,-1.6 4.6,-3.3 6.8,-5 h 0.1 c -1.2,-3 -2.8,-5.8 -5,-8.4 -2.6,1.1 -5.1,2.3 -7.6,3.5 -0.7,-0.7 -1.4,-1.4 -2.1,-2 -0.9,-0.7 -1.8,-1.4 -2.8,-1.9 -0.3,-0.3 -0.7,-0.5 -1,-0.7 0.4,-2.8 0.9,-5.6 1.3,-8.4 -1.2,-0.5 -2.5,-1 -3.8,-1.4 -0.3,-0.1 -0.7,-0.2 -1,-0.2 z M 22.2,71 c -1.7,-2.9 -2.1,-5.9 -1.2,-9.1 0.8,-3.2 2.7,-5.6 5.6,-7.3 2.8,-1.6 5.9,-2 9,-1.2 3.2,0.9 5.7,2.7 7.3,5.6 1.7,2.9 2.1,5.9 1.2,9.1 -0.8,3.2 -2.7,5.6 -5.5,7.2 -3,1.7 -6,2.1 -9.1,1.2 -3.2,-0.8 -5.7,-2.7 -7.3,-5.5 z"
       id="path6"
       inkscape:connector-curvature="0" /><path
       d="m 22.8,62.4 c -0.8,2.7 -0.5,5.3 0.9,7.7 h 0.1 c 1.4,2.5 3.5,4 6.2,4.8 2.7,0.7 5.3,0.4 7.8,-1 2.5,-1.5 4,-3.5 4.8,-6.2 v -0.1 c 0.7,-2.7 0.3,-5.3 -1.1,-7.7 -1.4,-2.5 -3.5,-4.1 -6.2,-4.8 -2.7,-0.8 -5.4,-0.4 -7.8,1 -2.5,1.4 -4,3.5 -4.7,6.3 z m 6,-4 c 1.9,-1.1 3.8,-1.4 5.8,-0.8 2,0.5 3.6,1.7 4.7,3.6 1.1,1.8 1.3,3.8 0.8,5.8 -0.6,2 -1.8,3.6 -3.6,4.6 v 0.1 c -1.9,1 -3.8,1.3 -5.8,0.7 C 28.6,71.9 27.1,70.7 26,68.8 25,67 24.7,65.1 25.2,63 25.8,61 27,59.5 28.8,58.4 Z"
       id="path8"
       inkscape:connector-curvature="0" /></g><metadata
     id="metadata12"><rdf:RDF><cc:Work><dc:format>image/svg+xml</dc:format><dc:type
           rdf:resource="http://purl.org/dc/dcmitype/StillImage" /><cc:license
           rdf:resource="http://creativecommons.org/publicdomain/zero/1.0/" /><dc:publisher><cc:Agent
             rdf:about="http://openclipart.org/"><dc:title>Openclipart</dc:title></cc:Agent></dc:publisher><dc:title></dc:title></cc:Work><cc:License
         rdf:about="http://creativecommons.org/publicdomain/zero/1.0/"><cc:permits
           rdf:resource="http://creativecommons.org/ns#Reproduction" /><cc:permits
           rdf:resource="http://creativecommons.org/ns#Distribution" /><cc:permits
           rdf:resource="http://creativecommons.org/ns#DerivativeWorks" /></cc:License></rdf:RDF></metadata><text
     xml:space="preserve"
     style="font-style:normal;font-weight:normal;font-size:40px;line-height:1.25;font-family:sans-serif;letter-spacing:0px;word-spacing:0px;fill:#000000;fill-opacity:1;stroke:none"
     x="69.477966"
     y="85.111862"
     id="text4497"><tspan
       sodipodi:role="line"
       id="tspan4495"
       x="69.477966"
       y="85.111862"
       style="font-style:normal;font-variant:normal;font-weight:normal;font-stretch:normal;font-size:37.33333206px;font-family:'Buxton Sketch';-inkscape-font-specification:'Buxton Sketch, Normal';font-variant-ligatures:normal;font-variant-caps:normal;font-variant-numeric:normal;font-feature-settings:normal;text-align:start;writing-mode:lr-tb;text-anchor:start">W PRO58</tspan></text>
</svg>